# xmcd
# Track frame offsets:
# 150
# 16249
# 37000
# 54169
# 70002
# 85304
# 96334
# 113641
# 127944
#
# Disc length: 1873 seconds
# Revision: 0
# Processed by: cddbd v1.4PL0 Copyright (c) Steve Scherf et al.
# Submitted via: VisiTrax 2.9.5.180 - For more info visit www.synapsa.com
#
DISCID=69074f09
DTITLE=Various Artist - New Country Volume 10 April 2000
DYEAR=2000
DGENRE=
TTITLE0=Sizie Merwine - Cajun fiddle blues
TTITLE1=Kelly Spencer - Nero
TTITLE2=Sweetwater/Sandy Wanless - I'll take the memories
TTITLE3=Ruckus - In my wildest dreams
TTITLE4=Aldo - Life's bridges
TTITLE5=Aldo - Mess around
TTITLE6=Jim Arp - Southern heaven
TTITLE7=Carl wane - Uncle Hickory's general store
TTITLE8=Eddie Collins - Why I love a country song
EXTD=
EXTT0=
EXTT1=
EXTT2=
EXTT3=
EXTT4=
EXTT5=
EXTT6=
EXTT7=
EXTT8=
PLAYORDER=
